<svg width="433" height="203" viewBox="0 0 433 203" fill="none" xmlns="http://www.w3.org/2000/svg">
<path d="M45.0296 24.0797C43.3974 28.8199 40.937 32.0339 37.6483 33.7218C34.3596 35.4098 30.6729 35.5505 26.5883 34.1441C22.5036 32.7376 19.6851 30.357 18.1328 27.0021C16.5804 23.6473 16.6204 19.5998 18.2525 14.8596C19.8847 10.1194 22.3452 6.9053 25.6339 5.21737C28.9226 3.52944 32.6093 3.38871 36.6939 4.79516C40.7785 6.20161 43.597 8.58226 45.1494 11.9371C46.7017 15.2919 46.6618 19.3395 45.0296 24.0797ZM36.4821 21.1365C37.3677 18.5647 37.5563 16.5426 37.048 15.0702C36.5396 13.5978 35.5795 12.6186 34.1675 12.1324C32.7051 11.6288 31.3204 11.8007 30.0133 12.648C28.7567 13.5127 27.6856 15.2309 26.8 17.8027C25.9145 20.3745 25.692 22.4131 26.1325 23.9186C26.6409 25.391 27.6262 26.3789 29.0886 26.8825C30.5006 27.3687 31.8601 27.1881 33.1672 26.3408C34.4916 25.4431 35.5966 23.7083 36.4821 21.1365ZM64.4158 15.6943L74.93 19.3147L27.3046 61.5504L16.7905 57.9301L64.4158 15.6943ZM73.6192 62.4373C71.987 67.1775 69.5266 70.3916 66.2379 72.0795C62.9492 73.7674 59.2625 73.9081 55.1778 72.5017C51.0932 71.0952 48.2747 68.7146 46.7224 65.3598C45.17 62.0049 45.2099 57.9574 46.8421 53.2172C48.4743 48.477 50.9347 45.2629 54.2234 43.575C57.5122 41.8871 61.1988 41.7463 65.2835 43.1528C69.3681 44.5593 72.1866 46.9399 73.739 50.2947C75.2913 53.6496 75.2514 57.6971 73.6192 62.4373ZM65.0717 59.4942C65.9573 56.9223 66.1459 54.9002 65.6375 53.4279C65.1292 51.9555 64.169 50.9762 62.7571 50.49C61.2947 49.9865 59.9099 50.1583 58.6029 51.0056C57.3462 51.8703 56.2751 53.5885 55.3896 56.1603C54.5041 58.7321 54.2816 60.7708 54.7221 62.2762C55.2304 63.7486 56.2158 64.7366 57.6782 65.2401C59.0902 65.7263 60.4497 65.5457 61.7568 64.6984C63.0812 63.8007 64.1862 62.066 65.0717 59.4942ZM112.777 90.981C112.848 88.9746 112.86 86.8917 112.813 84.7324C112.818 82.5904 112.822 80.4484 112.826 78.3064L92.4031 71.2742C91.0877 72.9647 89.7471 74.6465 88.3813 76.3197C87.0659 78.0102 85.8183 79.6677 84.6385 81.2921L72.3846 77.0727C76.296 72.102 79.959 67.5252 83.3735 63.3423C86.788 59.1594 90.0566 55.2365 93.1792 51.5735C96.3523 47.928 99.3969 44.492 102.313 41.2655C105.297 38.006 108.296 34.8648 111.311 31.8417L122.582 35.7225C123.046 39.9436 123.451 44.257 123.795 48.6625C124.157 53.0175 124.441 57.5995 124.646 62.4085C124.902 67.2347 125.088 72.3471 125.203 77.7454C125.319 83.1438 125.387 89.0055 125.409 95.3306L112.777 90.981ZM112.593 45.5666C112.08 46.2362 111.346 47.1398 110.39 48.2773C109.434 49.4147 108.334 50.7279 107.088 52.2167C105.842 53.7055 104.459 55.3448 102.941 57.1345C101.472 58.9416 99.944 60.8408 98.3558 62.8323L113.257 67.9632C113.232 65.4161 113.197 62.9786 113.152 60.6506C113.108 58.3226 113.028 56.1798 112.912 54.2222C112.847 52.2819 112.788 50.5694 112.735 49.0847C112.682 47.5999 112.635 46.4272 112.593 45.5666ZM163.132 108.32C162.663 106.24 162.036 103.966 161.251 101.495C160.534 98.9921 159.656 96.462 158.619 93.9049C157.649 91.3148 156.569 88.7995 155.379 86.359C154.206 83.8681 152.955 81.6041 151.626 79.5671L143.995 101.73L132.195 97.6669L150.244 45.2474L162.044 49.3105L155.22 69.1285C159.408 66.9603 163.638 64.6661 167.913 62.2458C172.255 59.7924 176.274 57.5382 179.971 55.4832L193.965 60.3016C188.926 63.3048 183.914 66.1479 178.929 68.8311C173.994 71.5316 168.849 74.1879 163.493 76.8C166.481 81.7207 169.091 87.2448 171.325 93.3724C173.608 99.5174 175.542 106.106 177.126 113.138L163.132 108.32ZM230.456 120.333L239.533 123.458L231.277 147.436L219.931 143.53L224.749 129.536L183.903 115.471L201.952 63.0519L213.752 67.115L199.141 109.55L218.656 116.27L233.268 73.8347L245.068 77.8978L230.456 120.333ZM243.662 136.048L261.712 83.6288L273.436 87.6659L262.784 118.603C265.537 116.505 268.451 114.35 271.525 112.137C274.617 109.874 277.666 107.736 280.671 105.725C283.744 103.681 286.706 101.796 289.556 100.07C292.407 98.3438 294.951 96.9352 297.188 95.8441L306.794 99.1519L288.745 151.571L277.096 147.56L288.921 113.219C282.694 116.885 276.608 120.966 270.66 125.461C264.713 129.956 259.016 134.623 253.571 139.46L243.662 136.048ZM339.179 121.048C337.666 120.527 336.16 120.15 334.661 119.916C333.23 119.649 331.89 119.61 330.64 119.8C329.407 119.94 328.298 120.376 327.312 121.108C326.344 121.79 325.617 122.837 325.131 124.249C324.211 126.922 324.51 129.084 326.028 130.735C327.597 132.403 330.248 133.88 333.979 135.165L338.896 136.858L343.767 122.713C343.179 122.454 342.532 122.203 341.826 121.96C341.12 121.717 340.238 121.413 339.179 121.048ZM343.198 111.095C345.316 111.824 347.744 112.801 350.481 114.025C353.268 115.267 355.945 116.668 358.51 118.228L340.851 169.513L329.051 165.45L335.536 146.615L331.905 145.365C331.25 145.139 330.62 144.922 330.014 144.714C329.409 144.506 328.695 144.203 327.873 143.807C325.427 145.504 322.606 147.719 319.408 150.454C316.278 153.155 313.239 156.001 310.292 158.991L297.811 154.693C299.431 152.938 301.092 151.226 302.795 149.556C304.549 147.904 306.267 146.352 307.951 144.901C309.636 143.45 311.242 142.142 312.772 140.977C314.319 139.761 315.72 138.72 316.977 137.856C316.041 136.969 315.157 135.932 314.326 134.743C313.562 133.521 312.951 132.183 312.493 130.728C312.035 129.273 311.798 127.668 311.782 125.914C311.833 124.126 312.215 122.199 312.927 120.131C313.916 117.257 315.339 114.927 317.195 113.14C319.102 111.371 321.341 110.112 323.912 109.361C326.533 108.628 329.453 108.421 332.671 108.739C335.958 109.024 339.466 109.81 343.198 111.095ZM389.775 142.785C388.142 147.525 385.682 150.739 382.393 152.427C379.105 154.115 375.418 154.256 371.333 152.849C367.249 151.443 364.43 149.062 362.878 145.707C361.325 142.352 361.365 138.305 362.997 133.565C364.63 128.825 367.09 125.61 370.379 123.923C373.668 122.235 377.354 122.094 381.439 123.5C385.523 124.907 388.342 127.287 389.894 130.642C391.447 133.997 391.407 138.045 389.775 142.785ZM381.227 139.842C382.113 137.27 382.301 135.248 381.793 133.775C381.285 132.303 380.324 131.324 378.912 130.838C377.45 130.334 376.065 130.506 374.758 131.353C373.502 132.218 372.43 133.936 371.545 136.508C370.659 139.08 370.437 141.118 370.877 142.624C371.386 144.096 372.371 145.084 373.834 145.588C375.246 146.074 376.605 145.893 377.912 145.046C379.237 144.148 380.342 142.414 381.227 139.842ZM409.161 134.4L419.675 138.02L372.05 180.256L361.535 176.635L409.161 134.4ZM418.364 181.142C416.732 185.883 414.272 189.097 410.983 190.785C407.694 192.473 404.007 192.613 399.923 191.207C395.838 189.8 393.02 187.42 391.467 184.065C389.915 180.71 389.955 176.663 391.587 171.922C393.219 167.182 395.68 163.968 398.968 162.28C402.257 160.592 405.944 160.452 410.028 161.858C414.113 163.264 416.932 165.645 418.484 169C420.036 172.355 419.996 176.402 418.364 181.142ZM409.817 178.199C410.702 175.628 410.891 173.605 410.382 172.133C409.874 170.661 408.914 169.681 407.502 169.195C406.04 168.692 404.655 168.864 403.348 169.711C402.091 170.575 401.02 172.294 400.135 174.866C399.249 177.437 399.026 179.476 399.467 180.981C399.975 182.454 400.961 183.442 402.423 183.945C403.835 184.431 405.195 184.251 406.502 183.404C407.826 182.506 408.931 180.771 409.817 178.199Z" fill="white" fill-opacity="0.1"/>
</svg>
