<svg width="201" height="200" viewBox="0 0 201 200" fill="none" xmlns="http://www.w3.org/2000/svg">
<path d="M94.5948 75.238L91.9281 75.9999C92.69 78.4761 93.071 81.9047 91.5472 83.8095C91.3567 83.9999 90.9758 84.3809 90.5948 84.5714C85.6424 87.4285 70.7853 80.9523 55.7377 65.9047C40.69 50.8571 34.2139 36.1904 37.071 31.0476C37.2615 30.6666 37.4519 30.4761 37.8329 30.2857C42.2138 26.4761 57.6424 32.9523 73.2615 48.5714C78.7853 54.0952 83.5472 59.9999 86.9758 65.7142L89.2615 64.3809C85.6424 58.6666 80.69 52.5714 75.1662 46.8571C61.2615 32.9523 43.1662 22.4761 36.3091 28.3809L36.1186 28.5714C36.1186 28.5714 35.9281 28.5714 35.9281 28.7618C35.7377 28.9523 35.5472 29.3333 35.3567 29.7142C28.4996 38.0952 34.5948 56.1904 50.0234 71.619C61.2615 82.8571 73.8329 89.1428 83.3567 89.1428C86.7853 89.1428 89.6424 88.3809 92.1186 86.6666C92.3091 86.6666 92.3091 86.4761 92.4996 86.4761C92.69 86.2857 92.8805 86.2857 93.071 86.0952C93.2615 85.9047 93.4519 85.9047 93.4519 85.7142L93.6424 85.5238L93.8329 85.3333C94.9758 83.8095 96.1186 80.7618 94.5948 75.238ZM35.3567 40.5714C38.2138 48.7618 45.6424 58.8571 54.0234 67.4285C62.5948 75.9999 72.69 83.238 80.8805 86.0952C72.4996 85.3333 61.4519 79.4285 51.9281 69.7142C42.2138 60.1904 36.3091 49.1428 35.3567 40.5714Z" fill="#063971"/>
<path d="M101.261 48.7618L98.5948 51.4285V55.0476H101.261V52.5714L103.547 54.8571L83.3567 75.0476L85.2615 76.9523L107.357 54.8571L101.261 48.7618Z" fill="#063971"/>
<path d="M40.1186 92.7618V105.714H42.7853V100.762H52.8805C58.2138 100.762 61.8329 97.3332 61.8329 92.1904C61.8329 89.9047 61.071 87.9999 59.3567 86.0951L48.4995 75.4285L46.5948 77.3332L57.2614 87.9999C58.5948 89.3332 58.9757 90.4761 58.9757 92.1904C58.9757 95.0475 57.2614 98.0951 52.69 98.0951H42.5948V92.7618H40.1186Z" fill="#063971"/>
<path d="M174.024 158.286H152.119C152.119 158.095 152.119 157.905 152.119 157.714V148H169.262V145.333H152.119V135.048H164.5V132.381H152.119V128H149.452V132.381H137.071V121.905H157.262V119.238H137.071V108.953H154.024V106.286H137.071V97.3335H140.5L139.548 86.2858C139.548 84.0001 138.214 82.4763 136.691 82.4763H135.167C133.452 82.4763 132.31 84.1906 132.31 86.2858L131.167 97.7144H134.595V108.572H117.643V111.238H134.595V121.524H114.214V123.81H134.405V134.095H122.024V127.81H119.357V134.095H106.976V136.762H119.357V147.048H102.214V149.714H119.357V157.524C119.357 158.476 119.357 159.238 119.548 160H97.6429V162.667H120.31C122.405 168.191 127.738 172.191 134.024 172.191H134.405V174.286H130.786V188.191H140.691V183.238H139.357C138.214 183.238 137.262 182.286 137.262 181.143C137.262 180 138.214 179.048 139.357 179.048H140.691V174.095H137.071V172H137.452C144.31 172 150.214 167.048 151.738 160.572H173.833V158.286H174.024ZM134.786 86.2858C134.786 85.5239 134.976 85.143 134.976 85.143H136.5C136.691 85.143 136.881 85.7144 136.881 86.4763L137.643 94.8573H133.833L134.786 86.2858ZM134.595 181.143C134.595 183.048 135.738 184.572 137.262 185.333H133.452V176.762H137.262C135.738 177.714 134.595 179.429 134.595 181.143ZM149.452 157.524C149.452 157.714 149.452 157.905 149.452 158.095H137.071V147.81H149.452V157.524ZM149.452 134.857V145.143H137.071V134.857H149.452ZM122.024 136.762H134.405V147.048H122.024V136.762V136.762ZM122.024 157.524V149.714H134.405V160H122.214C122.024 159.238 122.024 158.476 122.024 157.524ZM134.024 169.524C129.262 169.524 125.262 166.667 123.167 162.667H134.405V169.524H134.024ZM137.452 169.524H137.071V160.762H149.071C147.548 165.905 142.976 169.524 137.452 169.524Z" fill="#063971"/>
</svg>
