<svg width="201" height="200" viewBox="0 0 201 200" fill="none" xmlns="http://www.w3.org/2000/svg">
<path d="M66.0469 66.6666L72.275 72.0531L70.5306 74.0701L64.3025 68.6836L66.0469 66.6666ZM102.705 149.08L104.816 150.906L101.445 154.803C91.1321 166.727 75.1904 170.918 60.925 166.934C70.4072 167.748 80.1378 164.202 86.8251 156.47C97.9009 143.663 96.4958 124.236 83.6881 113.159C70.8804 102.082 51.4517 103.491 40.3759 116.297C35.2834 122.185 32.8622 129.472 32.9431 136.702C30.6502 125.166 33.4682 112.733 41.7417 103.167L57.6832 84.7347L59.7289 86.504L68.6566 76.1815L62.4861 70.8449L53.5585 81.1674L55.6648 82.989L39.7233 101.421C24.5258 118.993 26.4578 145.656 44.0313 160.855C61.6033 176.052 88.2661 174.12 103.464 156.548L106.834 152.651L108.877 154.418L117.805 144.096L111.634 138.759L102.707 149.081L102.705 149.08ZM62.7574 74.6077L64.8925 76.4543L59.455 82.7414L57.3199 80.8948L62.7574 74.6077ZM42.7431 127.758C50.2902 119.032 63.5263 118.074 72.2525 125.621C80.9744 133.164 81.9351 146.403 74.3892 155.128C66.8982 163.789 53.8028 164.788 45.0777 157.423C43.9532 156.425 42.9108 155.338 41.9604 154.173C36.049 146.467 36.1442 135.388 42.7431 127.758V127.758ZM81.9439 115.178C93.6365 125.291 94.9207 143.033 84.8069 154.727C79.3469 161.04 71.665 164.291 63.9108 164.381C68.768 163.271 73.1447 160.641 76.4049 156.874C84.9127 147.037 83.8325 132.111 73.9969 123.604C64.1585 115.095 49.2326 116.178 40.7249 126.015C38.1195 129.028 36.4225 132.518 35.5921 136.154C35.6272 129.501 38.0393 123.079 42.3932 118.047C52.5069 106.35 70.2498 105.065 81.9439 115.178V115.178ZM111.906 142.522L114.041 144.368L108.603 150.655L106.468 148.809L111.906 142.522ZM115.198 134.581L121.427 139.968L119.683 141.985L113.453 136.597L115.198 134.581Z" fill="#063971"/>
<path d="M144.571 54.2418C143.1 52.7714 141.14 52.7714 139.424 53.7517L127.906 42.2331V37.5766C127.906 36.1061 127.17 34.8808 125.945 34.1455L116.632 28.9989C115.407 28.2637 113.936 28.5088 112.956 29.4891L95.0654 47.3797C94.085 48.36 93.84 49.8305 94.5752 51.0558L99.7218 60.3688C100.457 61.5941 101.682 62.3294 103.153 62.3294H107.809L119.328 73.848C118.103 75.3185 118.348 77.5241 119.818 78.9946L120.553 79.7298L114.672 85.6117C112.956 87.3272 112.956 89.778 114.672 91.4935L116.387 93.2091L112.711 96.3951C111.486 97.6205 111.486 99.336 112.711 100.561L114.917 102.767C115.407 103.257 116.142 103.747 116.877 103.747C117.612 103.747 118.348 103.502 118.838 102.767L122.269 99.336L126.435 103.502L123.004 106.933C121.779 108.159 121.779 109.874 123.004 111.1L125.21 113.305C125.7 113.796 126.435 114.286 127.17 114.286C127.906 114.286 128.641 114.041 129.131 113.305L132.562 109.874L134.523 111.835C135.258 112.57 136.483 113.06 137.464 113.06C138.444 113.06 139.669 112.57 140.405 111.835L146.286 105.953L146.532 106.198C146.777 106.443 147.022 106.688 147.757 106.688C149.227 106.688 152.658 104.728 161.971 95.6598C173.735 83.8961 172.265 82.1806 171.284 81.4454L144.571 54.2418ZM97.7612 49.8305L115.407 32.1849L123.739 36.8414C120.798 40.0274 117.367 43.7035 113.446 47.6248C109.525 51.546 105.849 55.2221 102.418 58.1631L97.7612 49.8305ZM109.28 58.8983H106.584C109.525 56.2024 112.466 53.2615 115.652 50.0755C118.838 46.8895 121.779 43.9486 124.23 41.0077V43.7035L137.219 56.6926C137.464 56.9377 137.954 57.1828 138.444 57.4278C138.199 57.4278 138.199 57.6729 137.954 57.918C136.483 59.8786 133.788 63.0646 131.092 65.7605C128.151 68.7014 125.21 71.3972 123.249 72.6226C123.004 72.6226 123.004 72.8677 123.004 73.1128C123.004 72.6226 122.759 72.3775 122.269 71.8874L109.28 58.8983ZM116.877 100.071L115.407 98.6008L118.593 95.4148L120.063 96.8852L116.877 100.071ZM127.416 110.61L125.945 109.139L129.131 105.953L130.602 107.424L127.416 110.61ZM138.444 109.384C138.199 109.629 137.709 109.629 137.464 109.384L116.877 88.7977C116.632 88.5526 116.632 88.0624 116.877 87.8174L122.759 81.9355L144.326 103.502L138.444 109.384ZM160.011 93.4542C154.619 98.8458 150.453 102.277 148.737 103.257L122.759 77.2791L122.269 76.5438C122.024 76.2988 122.024 76.0537 122.514 75.5635C122.759 75.3185 122.759 75.0734 123.004 74.8283V75.0734C123.249 75.5635 123.984 75.8086 124.475 75.8086C124.72 75.8086 125.21 75.8086 125.455 75.5635C127.661 74.0931 130.847 71.3972 133.788 68.2112C136.974 65.0252 139.669 62.0843 141.14 59.8786C141.63 59.1434 141.385 57.918 140.65 57.4278H140.405C140.65 57.1828 141.14 57.1828 141.385 56.6926C141.63 56.4475 141.875 56.4475 142.12 56.6926L168.834 83.406C167.853 84.8765 165.157 88.3075 160.011 93.4542Z" fill="#063971"/>
</svg>
