<svg width="46" height="46" viewBox="0 0 46 46" fill="none" xmlns="http://www.w3.org/2000/svg">
<circle cx="23" cy="23" r="22" stroke="#E4E4E4" stroke-width="2"/>
<path d="M17.7187 14.875C16.6462 14.875 15.6907 15.5738 15.3828 16.6016L14.2656 20.3342L12.691 19.8012L12.184 21.3238L13.783 21.8576L13.2751 23.5842C13.2557 23.6587 13.2472 23.7356 13.25 23.8125V30.3125C13.25 30.7594 13.6156 31.125 14.0625 31.125H16.5L16.7795 30.3125H29.2205L29.5 31.125H31.9375C32.3843 31.125 32.75 30.7594 32.75 30.3125V29.6268C32.7532 29.5861 32.7532 29.5414 32.75 29.5V23.8125C32.7527 23.7356 32.7442 23.6587 32.7248 23.5842L32.217 21.8576L33.816 21.3246L33.3081 19.8004L31.7343 20.3342L30.6171 16.6016C30.4649 16.101 30.1555 15.6628 29.7348 15.3518C29.3141 15.0409 28.8044 14.8737 28.2812 14.875H17.7187ZM17.7187 16.5H28.2812C28.6428 16.5 28.9637 16.7381 29.0685 17.0842L30.1093 20.5625H15.8906L16.9314 17.0842C17.037 16.7348 17.3571 16.5 17.7187 16.5ZM15.408 22.1875H30.592L31.125 23.9653V28.6875H14.875V23.9644L15.408 22.1875ZM16.9062 23C16.583 23 16.273 23.1284 16.0444 23.357C15.8159 23.5855 15.6875 23.8955 15.6875 24.2188C15.6875 24.542 15.8159 24.852 16.0444 25.0805C16.273 25.3091 16.583 25.4375 16.9062 25.4375C17.2294 25.4375 17.5394 25.3091 17.768 25.0805C17.9966 24.852 18.125 24.542 18.125 24.2188C18.125 23.8955 17.9966 23.5855 17.768 23.357C17.5394 23.1284 17.2294 23 16.9062 23ZM29.0937 23C28.7705 23 28.4605 23.1284 28.2319 23.357C28.0034 23.5855 27.875 23.8955 27.875 24.2188C27.875 24.542 28.0034 24.852 28.2319 25.0805C28.4605 25.3091 28.7705 25.4375 29.0937 25.4375C29.4169 25.4375 29.7269 25.3091 29.9555 25.0805C30.1841 24.852 30.3125 24.542 30.3125 24.2188C30.3125 23.8955 30.1841 23.5855 29.9555 23.357C29.7269 23.1284 29.4169 23 29.0937 23ZM19.75 25.4375L18.7343 27.875H20.4861L20.842 27.0625H25.158L25.5138 27.875H27.2656L26.25 25.4375H19.75Z" fill="#063971"/>
</svg>
