<svg width="201" height="200" viewBox="0 0 201 200" fill="none" xmlns="http://www.w3.org/2000/svg">
<path d="M164.214 152C166.786 152 169.072 149.714 169.072 147.143V108C169.072 105.429 166.786 103.143 164.214 103.143H33.6429C31.0715 103.143 28.7858 105.429 28.7858 108V146.857C28.7858 149.429 31.0715 151.714 33.6429 151.714H164.214V152ZM33.6429 107.143H164.5C165.072 107.143 165.357 107.429 165.357 108V109.714H134.214C131.357 109.714 128.786 110.857 126.786 112.857L102.214 138.857C100.786 140.286 98.7858 141.143 96.7858 141.143H32.7858V108C32.7858 107.429 33.0715 107.143 33.6429 107.143ZM32.7858 147.143V145.429H97.3572C100.5 145.429 103.357 144 105.643 142L130.214 116C131.357 114.857 133.072 114 134.5 114H165.357V147.143C165.357 147.714 165.072 148 164.5 148H33.6429C33.0715 148 32.7858 147.429 32.7858 147.143Z" fill="#063971"/>
<path d="M61.9286 123.143H35.9286V137.714H61.9286V123.143ZM57.9286 133.714H39.9286V127.143H57.9286V133.714Z" fill="#063971"/>
<path d="M72.5001 124.571H69.6429V136H72.5001V124.571Z" fill="#063971"/>
<path d="M78.2143 124.571H75.3572V136H78.2143V124.571Z" fill="#063971"/>
<path d="M91.9286 124.571H89.0715V136H91.9286V124.571Z" fill="#063971"/>
<path d="M97.6429 124.571H94.7858V136H97.6429V124.571Z" fill="#063971"/>
<path d="M85.3571 126H81.9286V128.857H85.3571V126Z" fill="#063971"/>
<path d="M85.3571 132H81.9286V134.857H85.3571V132Z" fill="#063971"/>
<path d="M129.929 135.714C132.786 135.714 135.071 133.429 135.071 130.571C135.071 127.714 132.786 125.429 129.929 125.429C127.071 125.429 124.786 127.714 124.786 130.571C124.786 133.429 127.071 135.714 129.929 135.714ZM129.929 129.143C130.5 129.143 131.071 129.714 131.071 130.286C131.071 130.857 130.5 131.429 129.929 131.429C129.357 131.429 128.786 130.857 128.786 130.286C128.786 129.714 129.357 129.143 129.929 129.143Z" fill="#063971"/>
<path d="M142.5 135.714C145.357 135.714 147.643 133.429 147.643 130.571C147.643 127.714 145.357 125.429 142.5 125.429C139.643 125.429 137.357 127.714 137.357 130.571C137.357 133.429 139.643 135.714 142.5 135.714ZM142.5 129.143C143.071 129.143 143.643 129.714 143.643 130.286C143.643 130.857 143.071 131.429 142.5 131.429C141.929 131.429 141.357 130.857 141.357 130.286C141.357 129.714 141.643 129.143 142.5 129.143Z" fill="#063971"/>
<path d="M154.786 135.714C157.643 135.714 159.929 133.429 159.929 130.571C159.929 127.714 157.643 125.143 154.786 125.143C151.929 125.143 149.643 127.429 149.643 130.286C149.643 133.143 151.929 135.714 154.786 135.714ZM154.786 129.143C155.357 129.143 155.929 129.714 155.929 130.286C155.929 130.857 155.357 131.429 154.786 131.429C154.214 131.429 153.643 130.857 153.643 130.286C153.643 129.714 154.214 129.143 154.786 129.143Z" fill="#063971"/>
<path d="M128.214 85.7143C137.929 85.7143 145.643 77.7143 145.643 68.2857C145.643 58.5714 137.643 50.8571 128.214 50.8571H60.2143L59.6429 51.7143C56.5001 56.2857 54.7858 62 54.7858 68.2857C54.7858 74.5714 56.5001 80.5714 59.6429 84.8571L60.2143 85.7143H128.214ZM58.7858 68.2857C58.7858 63.1428 59.9286 58.2857 62.2143 54.8571H128.214C135.643 54.8571 141.643 60.8571 141.643 68.2857C141.643 75.7143 135.643 81.7143 128.214 81.7143H62.2143C59.9286 78.2857 58.7858 73.4285 58.7858 68.2857Z" fill="#063971"/>
<path d="M107.357 78.5714C113.071 78.5714 117.643 74 117.643 68.2857C117.643 62.5714 113.071 58 107.357 58C101.643 58 97.0715 62.5714 97.0715 68.2857C97.3572 74 101.929 78.5714 107.357 78.5714ZM107.357 62C110.786 62 113.643 64.8571 113.643 68.2857C113.643 71.7143 110.786 74.5714 107.357 74.5714C103.929 74.5714 101.071 71.7143 101.071 68.2857C101.071 64.8571 103.929 62 107.357 62Z" fill="#063971"/>
<path d="M89.6429 79.4285C91.3572 79.4285 92.7858 78 92.7858 76.2857C92.7858 74.5714 91.3572 73.1428 89.6429 73.1428C87.9286 73.1428 86.5001 74.5714 86.5001 76.2857C86.5001 78 87.6429 79.4285 89.6429 79.4285ZM89.6429 75.4285C89.9286 75.4285 90.5001 75.7143 90.5001 76.2857C90.5001 77.1428 89.0715 77.1428 89.0715 76.2857C88.7858 75.7143 89.0715 75.4285 89.6429 75.4285Z" fill="#063971"/>
<path d="M89.6429 63.7142C91.3572 63.7142 92.7858 62.2857 92.7858 60.5714C92.7858 58.8571 91.3572 57.1428 89.6429 57.1428C87.9286 57.1428 86.5001 58.5714 86.5001 60.2857C86.5001 62 87.6429 63.7142 89.6429 63.7142ZM89.6429 59.7142C89.9286 59.7142 90.5001 60 90.5001 60.5714C90.5001 61.4285 89.0715 61.4285 89.0715 60.5714C88.7858 60 89.0715 59.7142 89.6429 59.7142Z" fill="#063971"/>
<path d="M89.6429 71.4285C91.3572 71.4285 92.7858 70 92.7858 68.2857C92.7858 66.5714 91.3572 65.1428 89.6429 65.1428C87.9286 65.1428 86.5001 66.5714 86.5001 68.2857C86.5001 70 87.6429 71.4285 89.6429 71.4285ZM89.6429 67.4285C89.9286 67.4285 90.5001 67.7143 90.5001 68.2857C90.5001 69.1428 89.0715 69.1428 89.0715 68.2857C88.7858 68 89.0715 67.4285 89.6429 67.4285Z" fill="#063971"/>
<path d="M125.357 79.4285C127.072 79.4285 128.5 78 128.5 76.2857C128.5 74.5714 127.072 73.1428 125.357 73.1428C123.643 73.1428 122.214 74.5714 122.214 76.2857C122.214 78 123.643 79.4285 125.357 79.4285ZM125.357 75.4285C125.643 75.4285 126.214 75.7143 126.214 76.2857C126.214 77.1428 124.786 77.1428 124.786 76.2857C124.786 75.7143 125.072 75.4285 125.357 75.4285Z" fill="#063971"/>
<path d="M125.357 63.7142C127.072 63.7142 128.5 62.2857 128.5 60.5714C128.5 58.8571 127.072 57.1428 125.357 57.1428C123.643 57.1428 122.214 58.5714 122.214 60.2857C122.214 62 123.643 63.7142 125.357 63.7142ZM125.357 59.7142C125.643 59.7142 126.214 60 126.214 60.5714C126.214 61.4285 124.786 61.4285 124.786 60.5714C124.786 60 125.072 59.7142 125.357 59.7142Z" fill="#063971"/>
<path d="M125.357 71.4285C127.072 71.4285 128.5 70 128.5 68.2857C128.5 66.5714 127.072 65.1428 125.357 65.1428C123.643 65.1428 122.214 66.5714 122.214 68.2857C122.214 70 123.643 71.4285 125.357 71.4285ZM125.357 67.4285C125.643 67.4285 126.214 67.7143 126.214 68.2857C126.214 69.1428 124.786 69.1428 124.786 68.2857C124.786 68 125.072 67.4285 125.357 67.4285Z" fill="#063971"/>
<path d="M78.7858 79.4285C80.5001 79.4285 81.9287 78 81.9287 76.2857C81.9287 74.5714 80.5001 73.1428 78.7858 73.1428C77.0715 73.1428 75.6429 74.5714 75.6429 76.2857C75.6429 78 76.7858 79.4285 78.7858 79.4285ZM78.7858 75.4285C79.0715 75.4285 79.6429 75.7143 79.6429 76.2857C79.6429 77.1428 78.2144 77.1428 78.2144 76.2857C77.9287 75.7143 78.2144 75.4285 78.7858 75.4285Z" fill="#063971"/>
<path d="M78.7858 63.7142C80.5001 63.7142 81.9287 62.2857 81.9287 60.5714C81.9287 58.8571 80.5001 57.1428 78.7858 57.1428C77.0715 57.1428 75.6429 58.5714 75.6429 60.2857C75.6429 62 76.7858 63.7142 78.7858 63.7142ZM78.7858 59.7142C79.0715 59.7142 79.6429 60 79.6429 60.5714C79.6429 61.4285 78.2144 61.4285 78.2144 60.5714C77.9287 60 78.2144 59.7142 78.7858 59.7142Z" fill="#063971"/>
<path d="M78.7858 71.4285C80.5001 71.4285 81.9287 70 81.9287 68.2857C81.9287 66.5714 80.5001 65.1428 78.7858 65.1428C77.0715 65.1428 75.6429 66.5714 75.6429 68.2857C75.6429 70 76.7858 71.4285 78.7858 71.4285ZM78.7858 67.4285C79.0715 67.4285 79.6429 67.7143 79.6429 68.2857C79.6429 69.1428 78.2144 69.1428 78.2144 68.2857C77.9287 68 78.2144 67.4285 78.7858 67.4285Z" fill="#063971"/>
<path d="M67.9286 79.1429C69.6429 79.1429 71.0715 77.7143 71.0715 76C71.0715 74.2857 69.6429 72.8572 67.9286 72.8572C66.2143 72.8572 64.7858 74.2857 64.7858 76C64.7858 77.7143 65.9286 79.1429 67.9286 79.1429ZM67.9286 75.1429C68.2143 75.1429 68.7858 75.4286 68.7858 76C68.7858 76.8572 67.3572 76.8572 67.3572 76C67.0715 75.4286 67.3572 75.1429 67.9286 75.1429Z" fill="#063971"/>
<path d="M67.9286 63.4285C69.6429 63.4285 71.0715 62 71.0715 60.2857C71.0715 58.5714 69.6429 57.1428 67.9286 57.1428C66.2143 57.1428 64.7858 58.5714 64.7858 60.2857C64.7858 62 65.9286 63.4285 67.9286 63.4285ZM67.9286 59.4285C68.2143 59.4285 68.7858 59.7143 68.7858 60.2857C68.7858 61.1428 67.3572 61.1428 67.3572 60.2857C67.0715 60 67.3572 59.4285 67.9286 59.4285Z" fill="#063971"/>
<path d="M67.9286 71.4285C69.6429 71.4285 71.0715 70 71.0715 68.2857C71.0715 66.5714 69.6429 65.1428 67.9286 65.1428C66.2143 65.1428 64.7858 66.5714 64.7858 68.2857C64.7858 70 65.9286 71.4285 67.9286 71.4285ZM67.9286 67.4285C68.2143 67.4285 68.7858 67.7143 68.7858 68.2857C68.7858 69.1428 67.3572 69.1428 67.3572 68.2857C67.0715 67.7143 67.3572 67.4285 67.9286 67.4285Z" fill="#063971"/>
<path d="M48.7858 155.714H33.0715V159.714H48.7858V155.714Z" fill="#063971"/>
<path d="M164.214 155.714H148.5V159.714H164.214V155.714Z" fill="#063971"/>
</svg>
