<svg width="22" height="22" viewBox="0 0 22 22" fill="" xmlns="http://www.w3.org/2000/svg">
<path d="M5.033 0.4375C4.60806 0.4375 4.18881 0.59025 3.83944 0.868937L3.78906 0.894125L3.76388 0.920125L1.22481 3.53556L1.25 3.55994C0.877449 3.89823 0.613484 4.33932 0.491434 4.82751C0.369384 5.31571 0.394724 5.82913 0.564252 6.30294C0.567502 6.30944 0.561002 6.32163 0.564252 6.32812C1.25325 8.29925 3.01475 12.105 6.45488 15.5451C9.908 18.9982 13.7641 20.6899 15.6719 21.4357H15.6971C16.1752 21.5938 16.686 21.6254 17.18 21.5274C17.6739 21.4294 18.134 21.2053 18.5156 20.8768L21.0799 18.3125C21.7526 17.6397 21.7526 16.4714 21.0799 15.7986L17.7795 12.4983L17.7535 12.4471C17.0807 11.7743 15.888 11.7743 15.2144 12.4471L13.5894 14.0721C12.3699 13.4862 11.2482 12.7155 10.2639 11.7873C8.93381 10.5174 8.25456 9.05731 8.00431 8.48612L9.62931 6.86112C10.3118 6.17863 10.324 5.04275 9.60331 4.37325L9.6285 4.34725L9.55294 4.27169L6.30294 0.920125L6.27775 0.894937L6.22656 0.868937C5.88935 0.593583 5.46834 0.441403 5.033 0.4375ZM5.033 2.0625C5.09942 2.06636 5.16239 2.09339 5.21094 2.13887L8.46094 5.46444L8.53731 5.54081C8.53081 5.53431 8.58444 5.62044 8.48613 5.71875L6.45488 7.75L6.07381 8.10588L6.25256 8.61287C6.25256 8.61287 7.18531 11.1113 9.14669 12.9809L9.32463 13.1328C11.2121 14.8561 13.4375 15.7986 13.4375 15.7986L13.9453 16.0278L16.3576 13.6146C16.4974 13.4757 16.4714 13.4757 16.6111 13.6146L19.9375 16.9426C20.0772 17.0816 20.0772 17.0312 19.9375 17.1701L17.4488 19.6588C17.0751 19.9797 16.6777 20.0464 16.2057 19.8879C14.3646 19.164 10.7871 17.5926 7.59725 14.4036C4.38219 11.1877 2.70356 7.54119 2.0885 5.77075C1.96419 5.44006 2.05275 4.95175 2.342 4.70394L2.39238 4.65275L4.85588 2.13969C4.90389 2.09425 4.96623 2.06695 5.03219 2.0625H5.033Z" fill=""/>
</svg>
