<svg width="46" height="46" viewBox="0 0 46 46" fill="none" xmlns="http://www.w3.org/2000/svg">
<circle cx="23" cy="23" r="22" stroke="white" stroke-width="2"/>
<path d="M17.033 12.4375C16.6081 12.4375 16.1888 12.5902 15.8394 12.8689L15.7891 12.8941L15.7639 12.9201L13.2248 15.5356L13.25 15.5599C12.8774 15.8982 12.6135 16.3393 12.4914 16.8275C12.3694 17.3157 12.3947 17.8291 12.5643 18.3029C12.5675 18.3094 12.561 18.3216 12.5643 18.3281C13.2533 20.2993 15.0148 24.105 18.4549 27.5451C21.908 30.9982 25.7641 32.6899 27.6719 33.4357H27.6971C28.1752 33.5938 28.686 33.6254 29.18 33.5274C29.6739 33.4294 30.134 33.2053 30.5156 32.8768L33.0799 30.3125C33.7526 29.6397 33.7526 28.4714 33.0799 27.7986L29.7795 24.4983L29.7535 24.4471C29.0807 23.7743 27.888 23.7743 27.2144 24.4471L25.5894 26.0721C24.3699 25.4862 23.2482 24.7155 22.2639 23.7873C20.9338 22.5174 20.2546 21.0573 20.0043 20.4861L21.6293 18.8611C22.3118 18.1786 22.324 17.0427 21.6033 16.3733L21.6285 16.3472L21.5529 16.2717L18.3029 12.9201L18.2778 12.8949L18.2266 12.8689C17.8893 12.5936 17.4683 12.4414 17.033 12.4375ZM17.033 14.0625C17.0994 14.0664 17.1624 14.0934 17.2109 14.1389L20.4609 17.4644L20.5373 17.5408C20.5308 17.5343 20.5844 17.6204 20.4861 17.7188L18.4549 19.75L18.0738 20.1059L18.2526 20.6129C18.2526 20.6129 19.1853 23.1113 21.1467 24.9809L21.3246 25.1328C23.2121 26.8561 25.4375 27.7986 25.4375 27.7986L25.9453 28.0278L28.3576 25.6146C28.4974 25.4757 28.4714 25.4757 28.6111 25.6146L31.9375 28.9426C32.0772 29.0816 32.0772 29.0312 31.9375 29.1701L29.4488 31.6588C29.0751 31.9797 28.6777 32.0464 28.2057 31.8879C26.3646 31.164 22.7871 29.5926 19.5973 26.4036C16.3822 23.1877 14.7036 19.5412 14.0885 17.7708C13.9642 17.4401 14.0528 16.9518 14.342 16.7039L14.3924 16.6528L16.8559 14.1397C16.9039 14.0942 16.9662 14.067 17.0322 14.0625H17.033Z" fill="#063971"/>
</svg>
