<svg width="46" height="46" viewBox="0 0 46 46" fill="none" xmlns="http://www.w3.org/2000/svg">
<circle cx="23" cy="23" r="22" stroke="white" stroke-width="2"/>
<path d="M23 12.4375C18.9724 12.4375 15.6875 15.7224 15.6875 19.75C15.6875 20.8924 16.1506 22.2037 16.7795 23.6346C17.4076 25.0662 18.2176 26.5864 19.0391 28.0017C20.0741 29.7776 21.1753 31.514 22.3403 33.2074L23 34.1719L23.6606 33.2066C23.6606 33.2066 25.3173 30.8366 26.9609 28.0017C27.7832 26.5864 28.5924 25.0662 29.2205 23.6346C29.8494 22.2037 30.3125 20.8924 30.3125 19.75C30.3125 15.7224 27.0276 12.4375 23 12.4375ZM23 14.0625C26.1517 14.0625 28.6875 16.5983 28.6875 19.75C28.6875 20.4 28.3381 21.6318 27.7483 22.9748C27.1576 24.3171 26.3426 25.8056 25.5391 27.1892C24.2634 29.3919 23.4696 30.5571 23 31.2518C22.5304 30.5571 21.7366 29.3919 20.4609 27.1892C19.6582 25.8056 18.8424 24.3171 18.2517 22.9748C17.6619 21.6318 17.3125 20.4 17.3125 19.75C17.3125 16.5983 19.8483 14.0625 23 14.0625ZM23 18.125C22.569 18.125 22.1557 18.2962 21.851 18.601C21.5462 18.9057 21.375 19.319 21.375 19.75C21.375 20.181 21.5462 20.5943 21.851 20.899C22.1557 21.2038 22.569 21.375 23 21.375C23.431 21.375 23.8443 21.2038 24.149 20.899C24.4538 20.5943 24.625 20.181 24.625 19.75C24.625 19.319 24.4538 18.9057 24.149 18.601C23.8443 18.2962 23.431 18.125 23 18.125Z" fill="#063971"/>
</svg>
