<svg width="46" height="46" viewBox="0 0 46 46" fill="none" xmlns="http://www.w3.org/2000/svg">
<circle cx="23" cy="23" r="22" stroke="#E4E4E4" stroke-width="2"/>
<path d="M23 13.25C17.6237 13.25 13.25 17.6237 13.25 23C13.25 28.3763 17.6237 32.75 23 32.75C28.3763 32.75 32.75 28.3763 32.75 23C32.75 17.6237 28.3763 13.25 23 13.25ZM23 14.875C27.4972 14.875 31.125 18.5028 31.125 23C31.125 27.4972 27.4972 31.125 23 31.125C18.5028 31.125 14.875 27.4972 14.875 23C14.875 18.5028 18.5028 14.875 23 14.875ZM22.1875 16.5V23.8125H27.875V22.1875H23.8125V16.5H22.1875Z" fill="#063971"/>
</svg>
