<svg width="252" height="46" viewBox="0 0 252 46" fill="none" xmlns="http://www.w3.org/2000/svg">
<g clip-path="url(#clip0_215_473)">
<path d="M67.6278 7.96487V13.6297H58.7611V37.4815H52.1429V13.6297H43.2762V7.96487H67.6278ZM81.9463 37.4815C80.7867 35.0112 79.6412 32.4414 78.5099 29.7723C77.3786 27.1032 76.3039 24.4624 75.2857 21.8501C74.2675 19.2377 73.32 16.7389 72.4433 14.3538C71.5948 11.9686 70.8594 9.83895 70.2372 7.96487H77.5342C78.0998 9.66858 78.7079 11.5143 79.3584 13.5019C80.0372 15.4612 80.716 17.4204 81.3948 19.3797C82.1018 21.3389 82.7806 23.213 83.4311 25.0019C84.0816 26.7908 84.6897 28.3384 85.2557 29.6445C85.7928 28.3384 86.3867 26.7908 87.0375 25.0019C87.7163 23.213 88.3951 21.3389 89.0739 19.3797C89.7807 17.4204 90.4595 15.4612 91.1103 13.5019C91.789 11.5143 92.411 9.66858 92.9769 7.96487H100.019C99.3686 9.83895 98.6194 11.9686 97.7709 14.3538C96.9224 16.7389 95.989 19.2377 94.9709 21.8501C93.9527 24.4624 92.8777 27.1032 91.7466 29.7723C90.6147 32.4414 89.4693 35.0112 88.3103 37.4815H81.9463ZM108.189 32.9241C109.349 32.9241 110.17 32.8106 110.65 32.5834C111.131 32.3562 111.371 31.9161 111.371 31.263C111.371 30.7519 111.061 30.3118 110.438 29.9426C109.816 29.5451 108.868 29.105 107.595 28.6223C106.606 28.2532 105.701 27.8698 104.88 27.4723C104.089 27.0747 103.41 26.6062 102.844 26.0667C102.279 25.4988 101.84 24.8315 101.529 24.0649C101.218 23.2982 101.062 22.3754 101.062 21.2964C101.062 19.1951 101.84 17.534 103.395 16.313C104.952 15.0921 107.086 14.4815 109.802 14.4815C111.159 14.4815 112.461 14.6093 113.705 14.8649C114.949 15.0921 115.939 15.3476 116.674 15.6315L115.571 20.5723C114.836 20.3167 114.03 20.0895 113.153 19.8908C112.305 19.6921 111.343 19.5926 110.268 19.5926C108.289 19.5926 107.299 20.1464 107.299 21.2538C107.299 21.5093 107.341 21.7365 107.426 21.9352C107.511 22.134 107.68 22.3328 107.935 22.5315C108.189 22.7019 108.529 22.9006 108.953 23.1278C109.406 23.3266 109.971 23.5538 110.65 23.8093C112.036 24.3204 113.182 24.8315 114.086 25.3426C114.992 25.8254 115.699 26.3649 116.208 26.9612C116.746 27.5291 117.113 28.168 117.311 28.8778C117.537 29.5877 117.65 30.4112 117.65 31.3482C117.65 33.563 116.816 35.2384 115.147 36.3741C113.507 37.5099 111.174 38.0778 108.147 38.0778C106.167 38.0778 104.513 37.9075 103.183 37.5667C101.883 37.226 100.977 36.9421 100.468 36.7149L101.529 31.5612C102.604 31.9871 103.707 32.3278 104.838 32.5834C105.97 32.8106 107.086 32.9241 108.189 32.9241ZM136.671 26.4501C136.671 24.4908 136.233 22.9291 135.356 21.7649C134.479 20.5723 133.178 19.976 131.453 19.976C130.887 19.976 130.364 20.0043 129.883 20.0612C129.402 20.0895 129.006 20.1321 128.696 20.1889V31.6464C129.091 31.9019 129.6 32.1149 130.223 32.2852C130.873 32.4556 131.524 32.5408 132.174 32.5408C135.172 32.5408 136.671 30.5106 136.671 26.4501ZM143.12 26.2797C143.12 28.0118 142.908 29.5877 142.483 31.0075C142.059 32.4272 141.436 33.6482 140.617 34.6704C139.796 35.6926 138.778 36.4877 137.562 37.0556C136.346 37.6235 134.946 37.9075 133.362 37.9075C132.485 37.9075 131.665 37.8223 130.902 37.6519C130.138 37.4815 129.402 37.2402 128.696 36.9278V45.3612H122.374V15.8445C122.939 15.6741 123.59 15.518 124.326 15.376C125.061 15.2056 125.824 15.0636 126.617 14.9501C127.436 14.8365 128.257 14.7513 129.077 14.6945C129.926 14.6093 130.732 14.5667 131.496 14.5667C133.333 14.5667 134.974 14.8506 136.417 15.4186C137.859 15.9581 139.075 16.7389 140.065 17.7612C141.055 18.755 141.805 19.976 142.314 21.4241C142.851 22.8723 143.12 24.4908 143.12 26.2797ZM167.027 36.7149C165.952 37.0272 164.566 37.3112 162.869 37.5667C161.172 37.8506 159.39 37.9926 157.524 37.9926C155.628 37.9926 154.045 37.7371 152.772 37.226C151.527 36.7149 150.537 36.005 149.802 35.0964C149.067 34.1593 148.543 33.0519 148.233 31.7741C147.921 30.4963 147.766 29.0908 147.766 27.5575V15.0778H154.087V26.7908C154.087 28.8352 154.355 30.3118 154.893 31.2204C155.431 32.1291 156.434 32.5834 157.906 32.5834C158.358 32.5834 158.839 32.5692 159.348 32.5408C159.857 32.484 160.309 32.4272 160.706 32.3704V15.0778H167.027V36.7149ZM172.748 9.49821L179.069 8.47598V15.0778H186.663V20.3593H179.069V28.2389C179.069 29.5735 179.296 30.6384 179.748 31.4334C180.229 32.2284 181.176 32.626 182.59 32.626C183.269 32.626 183.963 32.5692 184.669 32.4556C185.405 32.3136 186.069 32.1291 186.663 31.9019L187.554 36.8426C186.791 37.155 185.942 37.4247 185.009 37.6519C184.075 37.8791 182.93 37.9926 181.572 37.9926C179.847 37.9926 178.419 37.7655 177.287 37.3112C176.156 36.8284 175.251 36.1754 174.572 35.3519C173.894 34.5001 173.412 33.4778 173.13 32.2852C172.875 31.0926 172.748 29.7723 172.748 28.3241V9.49821ZM191.811 15.8445C192.885 15.5321 194.272 15.2482 195.969 14.9927C197.666 14.7087 199.447 14.5667 201.314 14.5667C203.209 14.5667 204.778 14.8223 206.023 15.3334C207.296 15.8161 208.3 16.5118 209.035 17.4204C209.77 18.3291 210.294 19.4081 210.605 20.6575C210.915 21.9069 211.072 23.2982 211.072 24.8315V37.4815H204.75V25.5982C204.75 23.5538 204.481 22.1056 203.944 21.2538C203.406 20.4019 202.403 19.976 200.932 19.976C200.479 19.976 199.999 20.0043 199.49 20.0612C198.981 20.0895 198.528 20.1321 198.132 20.1889V37.4815H191.811V15.8445ZM223.114 37.4815H216.793V15.0778H223.114V37.4815ZM223.708 8.60376C223.708 9.76799 223.326 10.6908 222.563 11.3723C221.827 12.0254 220.951 12.3519 219.932 12.3519C218.914 12.3519 218.023 12.0254 217.26 11.3723C216.524 10.6908 216.157 9.76799 216.157 8.60376C216.157 7.43956 216.524 6.53092 217.26 5.87784C218.023 5.19635 218.914 4.85561 219.932 4.85561C220.951 4.85561 221.827 5.19635 222.563 5.87784C223.326 6.53092 223.708 7.43956 223.708 8.60376ZM235.377 23.1704C236 22.4889 236.636 21.7791 237.286 21.0408C237.965 20.3025 238.616 19.5784 239.238 18.8686C239.861 18.1303 240.44 17.4347 240.977 16.7815C241.543 16.1284 242.024 15.5606 242.42 15.0778H249.929C248.43 16.8099 246.959 18.471 245.517 20.0612C244.103 21.6229 242.547 23.2414 240.85 24.9167C241.699 25.6834 242.576 26.6062 243.48 27.6852C244.386 28.7358 245.262 29.8291 246.111 30.9649C246.959 32.1006 247.737 33.2365 248.444 34.3723C249.152 35.508 249.746 36.5445 250.226 37.4815H242.971C242.519 36.7432 241.995 35.934 241.402 35.0538C240.836 34.1451 240.228 33.2506 239.577 32.3704C238.927 31.4618 238.234 30.5958 237.499 29.7723C236.792 28.9488 236.085 28.2532 235.377 27.6852V37.4815H229.056V5.45191L235.377 4.42969V23.1704Z" fill="#000D22"/>
<path fill-rule="evenodd" clip-rule="evenodd" d="M1.17174 28.2676L5.98228 26.5945C7.20574 30.1454 9.65949 33.2873 13.155 35.3134C20.8656 39.7829 30.7252 37.1306 35.177 29.3894C39.6288 21.6481 36.987 11.7494 29.2764 7.27996C25.7809 5.25382 21.8438 4.69126 18.1691 5.40288L17.207 0.383789C11.3763 1.51295 6.04767 5.08016 2.84549 10.6485C-0.3567 16.2168 -0.769531 22.6334 1.17174 28.2676ZM5.98228 26.5945C4.50691 22.3126 4.82065 17.4359 7.25432 13.204C9.688 8.97211 13.7377 6.26107 18.169 5.4029L19.1311 10.422C16.0991 11.0091 13.3283 12.8641 11.6632 15.7596C9.99804 18.6551 9.78337 21.9918 10.7928 24.9216L5.98228 26.5945ZM20.5214 21.5381C20.9199 21.3995 21.1565 20.9881 21.0768 20.5722L20.0932 15.4411C18.4607 15.7573 16.9686 16.7561 16.072 18.3152C15.1754 19.8743 15.0598 21.6709 15.6033 23.2485L20.5214 21.5381Z" fill="#000D22"/>
</g>
<defs>
<clipPath id="clip0_215_473">
<rect width="252" height="46" fill="white"/>
</clipPath>
</defs>
</svg>
