<svg width="38" height="38" viewBox="0 0 38 38" fill="none" xmlns="http://www.w3.org/2000/svg">
<path fill-rule="evenodd" clip-rule="evenodd" d="M1.17272 28.2672L5.98326 26.5941C7.20672 30.145 9.66047 33.2869 13.156 35.313C20.8666 39.7825 30.7261 37.1302 35.178 29.389C39.6298 21.6477 36.988 11.749 29.2773 7.27955C25.7818 5.25341 21.8448 4.69085 18.1701 5.40248L17.208 0.383385C11.3773 1.51254 6.04865 5.07976 2.84646 10.6481C-0.355724 16.2164 -0.768554 22.633 1.17272 28.2672ZM5.98326 26.5941C4.50788 22.3122 4.82163 17.4355 7.25529 13.2036C9.68898 8.97171 13.7387 6.26066 18.17 5.4025L19.1321 10.4216C16.1001 11.0087 13.3292 12.8637 11.6642 15.7592C9.99901 18.6547 9.78435 21.9914 10.7938 24.9212L5.98326 26.5941ZM20.5223 21.5377C20.9209 21.3991 21.1575 20.9877 21.0778 20.5718L20.0942 15.4407C18.4616 15.7569 16.9696 16.7557 16.073 18.3148C15.1764 19.8739 15.0607 21.6705 15.6043 23.2481L20.5223 21.5377Z" fill="#063971"/>
</svg>
