<svg width="201" height="200" viewBox="0 0 201 200" fill="none" xmlns="http://www.w3.org/2000/svg">
<path d="M136.214 91.4286H163.071V87.4286H137.071C139.929 77.4286 146.214 68.5715 155.071 62.5715L157.071 61.1429L139.071 42.8572L137.643 44.8572C129.357 57.1429 115.643 64.2857 100.786 64.2857C85.9286 64.2857 72.2143 56.8572 63.9286 44.8572L62.5 42.8572L43.9286 61.4286L45.9286 62.8572C54.5 68.8572 60.7857 77.7143 63.6429 87.4286H38.2143V91.4286H64.5C65.0714 94 65.3572 96.8572 65.3572 99.7143C65.3572 102.857 65.0714 105.714 64.5 108.571H38.2143V112.571H63.3572C60.5 122.286 54.2143 130.857 45.6429 136.857L43.3572 138L62.5 157.143L63.9286 155.143C72.2143 143.143 85.9286 135.714 100.786 135.714C115.357 135.714 129.357 142.857 137.643 155.143L139.071 157.143L157.929 138.286L155.929 136.857C147.071 130.857 140.5 122.286 137.643 112.286H163.357V108.571H136.5C135.929 105.714 135.643 102.857 135.643 99.7143C135.357 96.8572 135.643 94.2857 136.214 91.4286ZM151.357 138.857L139.357 150.857C130.214 138.857 115.929 131.714 100.786 131.714C85.6429 131.714 71.3572 138.857 62.2143 150.857L49.9286 138.571C62.2143 129.429 69.3572 115.143 69.3572 99.7143C69.3572 84.5715 62.2143 70.2857 50.2143 61.1429L62.2143 49.1429C71.3572 61.1429 85.6429 68.5715 101.071 68.5715C116.214 68.5715 130.786 61.4286 139.929 49.1429L151.357 60.5715C139.071 69.7143 131.643 84.2858 131.643 99.7143C131.357 115.143 138.786 129.714 151.357 138.857Z" fill="#063971"/>
<path d="M67.9286 71.4286C70.1377 71.4286 71.9286 69.6377 71.9286 67.4286C71.9286 65.2194 70.1377 63.4286 67.9286 63.4286C65.7194 63.4286 63.9286 65.2194 63.9286 67.4286C63.9286 69.6377 65.7194 71.4286 67.9286 71.4286Z" fill="#063971"/>
<path d="M133.071 71.4286C135.281 71.4286 137.071 69.6377 137.071 67.4286C137.071 65.2194 135.281 63.4286 133.071 63.4286C130.862 63.4286 129.071 65.2194 129.071 67.4286C129.071 69.6377 130.862 71.4286 133.071 71.4286Z" fill="#063971"/>
<path d="M67.9286 136.571C70.1377 136.571 71.9286 134.781 71.9286 132.571C71.9286 130.362 70.1377 128.571 67.9286 128.571C65.7194 128.571 63.9286 130.362 63.9286 132.571C63.9286 134.781 65.7194 136.571 67.9286 136.571Z" fill="#063971"/>
<path d="M133.071 136.571C135.281 136.571 137.071 134.781 137.071 132.571C137.071 130.362 135.281 128.571 133.071 128.571C130.862 128.571 129.071 130.362 129.071 132.571C129.071 134.781 130.862 136.571 133.071 136.571Z" fill="#063971"/>
<path d="M116.214 73.4286H84.7857C78.7857 73.4286 73.9286 78.2857 73.9286 84.2857V115.714C73.9286 121.714 78.7857 126.571 84.7857 126.571H116.214C122.214 126.571 127.071 121.714 127.071 115.714V84.2857C127.071 78.2857 122.214 73.4286 116.214 73.4286ZM84.7857 77.4286H116.214C119.929 77.4286 123.071 80.5714 123.071 84.2857V87.4286H77.9286V84.2857C77.9286 80.5714 81.0714 77.4286 84.7857 77.4286ZM123.071 91.4286V108.571H77.9286V91.4286H123.071ZM116.214 122.571H84.7857C81.0714 122.571 77.9286 119.429 77.9286 115.714V112.571H123.071V115.714C123.071 119.429 119.929 122.571 116.214 122.571Z" fill="#063971"/>
</svg>
