<svg width="213" height="30" viewBox="0 0 213 30" fill="none" xmlns="http://www.w3.org/2000/svg">
<g clip-path="url(#clip0_234_544)">
<path d="M14.8086 29.2122C6.63005 29.2122 0 22.6699 0 14.5999C0 6.52771 6.63005 -0.015625 14.8086 -0.015625C22.9871 -0.015625 29.616 6.52771 29.616 14.5999C29.616 22.6699 22.9871 29.2122 14.8086 29.2122Z" fill="#009640"/>
<path d="M10.6366 12.9332C12.5816 12.9332 14.1584 11.3786 14.1584 9.46099C14.1584 7.54334 12.5816 5.98877 10.6366 5.98877C8.69152 5.98877 7.11475 7.54334 7.11475 9.46099C7.11475 11.3786 8.69152 12.9332 10.6366 12.9332Z" fill="white"/>
<path d="M208.788 10.0611C208.413 6.94218 203.932 5.81551 201.905 8.04662C200.756 9.29329 200.742 11.6688 200.742 13.86V15.0877C200.742 17.3811 200.869 18.7877 201.165 19.41H201.162C201.332 20.0333 201.589 20.6088 201.977 21.03C203.948 23.2 208.849 22.5266 208.805 18.7877H212.994L212.976 19.9444C212.686 24.7066 208.662 26.5833 204.616 26.3966C202.311 26.3477 200.215 25.4422 198.572 23.8033C197.398 22.6333 196.775 21.2811 196.482 19.41H196.491C196.206 18.1633 196.321 16.4133 196.321 14.5044V13.5788C196.321 8.99884 196.764 7.14884 198.573 5.34551C200.215 3.70551 202.281 2.88884 204.588 2.83995C208.634 2.6544 212.643 4.49329 212.933 9.25551L212.917 10.0611H208.788ZM189.865 23.8577C188.204 25.5522 186.024 26.3822 183.475 26.3822C180.875 26.3822 178.723 25.4666 177.047 23.7788C175.094 21.81 174.75 19.41 174.682 16.2944H171.054V26.2677H166.632V3.20218H171.054V12.5522H174.716C174.845 8.81218 175.297 7.19329 177.047 5.38773C178.763 3.62995 180.991 2.78662 183.44 2.78662C186.01 2.78662 188.166 3.63551 189.865 5.33551C191.633 7.09884 192.196 9.34662 192.196 12.5377C192.197 12.7533 192.196 14.42 192.196 14.5888C192.196 18.6411 192.225 21.4488 189.865 23.8577ZM187.477 13.7611C187.477 10.7511 187.289 9.08551 186.388 8.08218C185.668 7.26551 184.625 6.83662 183.429 6.83662C182.232 6.83662 181.166 7.26551 180.448 8.08218C179.529 9.12662 179.266 10.9833 179.266 13.9211V15.3655C179.266 18.7555 179.553 20.1211 180.438 21.1055C181.178 21.9144 182.252 22.3777 183.419 22.3777C184.588 22.3777 185.651 21.9144 186.393 21.1055C187.385 20.02 187.477 18.3644 187.477 15.1333V13.7611ZM155.893 6.94218H150.456L150.191 16.7333C150.009 23.2711 147.497 26.2677 142.903 26.2677H140.733V21.9055H141.633C143.766 21.9055 145.41 20.9833 145.534 16.5366L145.896 3.20218H160.316V26.2677H155.893V6.94218ZM132.522 6.94218H124.31V26.2677H119.889V3.20218H136.943V26.2677H132.522V6.94218ZM107.886 16.9166H111.676V30.0077H107.886V16.9166ZM101.271 19.5911C101.271 23.6644 98.4758 26.2677 94.0186 26.2677H83.8836V3.20218H93.6208C98.0791 3.20218 100.945 5.57329 100.945 9.48218C100.945 11.7088 99.9781 13.2322 98.0059 14.3133C98.9458 14.7955 99.3109 15.0711 99.8023 15.5633C100.839 16.6388 101.271 17.96 101.271 19.5911ZM93.2579 6.94218H88.937V12.5522H93.2579C95.1478 12.5522 96.3176 11.4155 96.3176 9.74773C96.3176 8.08107 95.1478 6.94218 93.2579 6.94218ZM93.5498 16.2944H88.937V21.9055H93.5498C95.4476 21.9055 96.6501 20.8511 96.6501 19.0777C96.6501 17.3188 95.4476 16.2944 93.5498 16.2944ZM74.408 26.2677H69.3546V6.94218H63.0378V3.20218H80.0936V6.94218H74.408V26.2677ZM54.8266 16.2944H46.6143V26.2677H42.1931V3.20218H46.6143V12.5522H54.8266V3.20218H59.2478V26.2677H54.8266V16.2944Z" fill="#575655"/>
</g>
<defs>
<clipPath id="clip0_234_544">
<rect width="213" height="30" fill="white"/>
</clipPath>
</defs>
</svg>
