<svg width="22" height="22" viewBox="0 0 22 22" fill="none" xmlns="http://www.w3.org/2000/svg">
<path d="M5.03312 0.4375C4.60819 0.4375 4.18894 0.59025 3.83956 0.868937L3.78919 0.894125L3.764 0.920125L1.22494 3.53556L1.25012 3.55994C0.877572 3.89823 0.613606 4.33932 0.491556 4.82751C0.369506 5.31571 0.394846 5.82913 0.564374 6.30294C0.567624 6.30944 0.561124 6.32162 0.564374 6.32812C1.25337 8.29925 3.01487 12.105 6.455 15.5451C9.90812 18.9982 13.7642 20.6899 15.672 21.4357H15.6972C16.1753 21.5938 16.6862 21.6254 17.1801 21.5274C17.674 21.4294 18.1341 21.2053 18.5157 20.8768L21.08 18.3125C21.7527 17.6397 21.7527 16.4714 21.08 15.7986L17.7796 12.4982L17.7536 12.4471C17.0809 11.7743 15.8881 11.7743 15.2146 12.4471L13.5896 14.0721C12.3701 13.4862 11.2483 12.7155 10.264 11.7873C8.93394 10.5174 8.25469 9.05731 8.00444 8.48613L9.62944 6.86113C10.3119 6.17863 10.3241 5.04275 9.60344 4.37325L9.62862 4.34725L9.55306 4.27169L6.30306 0.920125L6.27787 0.894937L6.22669 0.868937C5.88947 0.593583 5.46846 0.441403 5.03312 0.4375V0.4375ZM5.03312 2.0625C5.09954 2.06636 5.16251 2.09339 5.21106 2.13887L8.46106 5.46444L8.53744 5.54081C8.53094 5.53431 8.58456 5.62044 8.48625 5.71875L6.455 7.75L6.07394 8.10587L6.25269 8.61288C6.25269 8.61288 7.18544 11.1113 9.14681 12.9809L9.32475 13.1328C11.2122 14.8561 13.4376 15.7986 13.4376 15.7986L13.9454 16.0277L16.3577 13.6146C16.4975 13.4757 16.4715 13.4757 16.6112 13.6146L19.9376 16.9426C20.0774 17.0816 20.0774 17.0312 19.9376 17.1701L17.4489 19.6588C17.0752 19.9797 16.6779 20.0464 16.2058 19.8879C14.3647 19.164 10.7872 17.5926 7.59737 14.4036C4.38231 11.1877 2.70369 7.54119 2.08862 5.77075C1.96431 5.44006 2.05287 4.95175 2.34212 4.70394L2.3925 4.65275L4.856 2.13969C4.90401 2.09425 4.96635 2.06695 5.03231 2.0625H5.03312Z" fill="#063971"/>
</svg>
