<svg width="46" height="46" viewBox="0 0 46 46" fill="none" xmlns="http://www.w3.org/2000/svg">
<circle cx="23" cy="23" r="22" stroke="#E4E4E4" stroke-width="2"/>
<path d="M17.0331 12.4375C16.6082 12.4375 16.1889 12.5902 15.8396 12.8689L15.7892 12.8941L15.764 12.9201L13.2249 15.5356L13.2501 15.5599C12.8776 15.8982 12.6136 16.3393 12.4916 16.8275C12.3695 17.3157 12.3948 17.8291 12.5644 18.3029C12.5676 18.3094 12.5611 18.3216 12.5644 18.3281C13.2534 20.2993 15.0149 24.105 18.455 27.5451C21.9081 30.9982 25.7642 32.6899 27.672 33.4357H27.6972C28.1753 33.5938 28.6862 33.6254 29.1801 33.5274C29.674 33.4294 30.1341 33.2053 30.5157 32.8768L33.08 30.3125C33.7527 29.6397 33.7527 28.4714 33.08 27.7986L29.7796 24.4983L29.7536 24.4471C29.0809 23.7743 27.8881 23.7743 27.2146 24.4471L25.5896 26.0721C24.3701 25.4862 23.2483 24.7155 22.264 23.7873C20.9339 22.5174 20.2547 21.0573 20.0044 20.4861L21.6294 18.8611C22.3119 18.1786 22.3241 17.0427 21.6034 16.3733L21.6286 16.3472L21.5531 16.2717L18.3031 12.9201L18.2779 12.8949L18.2267 12.8689C17.8895 12.5936 17.4685 12.4414 17.0331 12.4375ZM17.0331 14.0625C17.0995 14.0664 17.1625 14.0934 17.2111 14.1389L20.4611 17.4644L20.5374 17.5408C20.5309 17.5343 20.5846 17.6204 20.4862 17.7188L18.455 19.75L18.0739 20.1059L18.2527 20.6129C18.2527 20.6129 19.1854 23.1113 21.1468 24.9809L21.3247 25.1328C23.2122 26.8561 25.4376 27.7986 25.4376 27.7986L25.9454 28.0278L28.3577 25.6146C28.4975 25.4757 28.4715 25.4757 28.6112 25.6146L31.9376 28.9426C32.0774 29.0816 32.0774 29.0312 31.9376 29.1701L29.4489 31.6588C29.0752 31.9797 28.6779 32.0464 28.2058 31.8879C26.3647 31.164 22.7872 29.5926 19.5974 26.4036C16.3823 23.1877 14.7037 19.5412 14.0886 17.7708C13.9643 17.4401 14.0529 16.9518 14.3421 16.7039L14.3925 16.6528L16.856 14.1397C16.904 14.0942 16.9664 14.067 17.0323 14.0625H17.0331Z" fill="#063971"/>
</svg>
