<svg width="300" height="45.99999999999999" xmlns="http://www.w3.org/2000/svg" fill="none">
 <defs>
  <linearGradient y2="2.3833" x2="0.89146" y1="0.04" x1="0.00658" id="paint0_linear_256_1511">
   <stop stop-color="#3796FF"/>
   <stop stop-color="#063971" offset="1"/>
  </linearGradient>
 </defs>
 <g>
  <title>Layer 1</title>
  <path stroke="null" id="svg_1" fill="url(#paint0_linear_256_1511)" d="m9.85745,3.65333l279.95177,0l0,-3.65333l-279.95177,0l0,3.65333zm285.86624,5.48l0,27.4l3.94298,0l0,-27.4l-3.94298,0zm-5.91447,32.88l-279.95178,0l0,3.65333l279.95178,0l0,-3.65333zm-285.86624,-5.48l0,-27.4l-3.94298,0l0,27.4l3.94298,0zm5.91446,5.48c-3.26647,0 -5.91446,-2.45349 -5.91446,-5.48l-3.94298,0c0,5.04416 4.41332,9.13333 9.85745,9.13333l0,-3.65333zm285.86625,-5.48c0,3.02651 -2.64771,5.48 -5.91447,5.48l0,3.65333c5.44427,0 9.85746,-4.08918 9.85746,-9.13333l-3.94298,0zm-5.91447,-32.88c3.26676,0 5.91447,2.45348 5.91447,5.48l3.94298,0c0,-5.04419 -4.41318,-9.13333 -9.85746,-9.13333l0,3.65333zm-279.95177,-3.65333c-5.44413,0 -9.85746,4.08913 -9.85746,9.13333l3.94298,0c0,-3.02652 2.648,-5.48 5.91447,-5.48l0,-3.65333z"/>
 </g>
</svg>