<svg width="304" height="50" xmlns="http://www.w3.org/2000/svg" fill="none">
 <defs>
  <linearGradient y2="2.3833" x2="0.89146" y1="0.04" x1="0.00658" id="paint0_linear_429_2168">
   <stop stop-color="#3796FF"/>
   <stop stop-color="#063971" offset="1"/>
  </linearGradient>
 </defs>
 <g>
  <title>Layer 1</title>
  <path id="svg_1" fill="url(#paint0_linear_429_2168)" d="m10,4l284,0l0,-4l-284,0l0,4zm290,6l0,30l4,0l0,-30l-4,0zm-6,36l-284.00001,0l0,4l284.00001,0l0,-4zm-290,-6l0,-30l-4,0l0,30l4,0zm5.99999,6c-3.3137,0 -5.99999,-2.6863 -5.99999,-6l-4,0c0,5.5228 4.47714,10 9.99999,10l0,-4zm290.00001,-6c0,3.3137 -2.686,6 -6,6l0,4c5.523,0 10,-4.4772 10,-10l-4,0zm-6,-36c3.314,0 6,2.68629 6,6l4,0c0,-5.52284 -4.477,-10 -10,-10l0,4zm-284,-4c-5.52285,0 -10,4.47715 -10,10l4,0c0,-3.31371 2.68629,-6 6,-6l0,-4z"/>
 </g>
</svg>