<svg width="238" height="60" viewBox="0 0 238 60" fill="none" xmlns="http://www.w3.org/2000/svg">
<g clip-path="url(#clip0_234_528)">
<path d="M50.2146 26.5C48.4659 14.25 37.9732 4.75 25.2322 4.75C21.8596 4.75 18.7368 5.375 15.8638 6.625L50.2146 26.5Z" fill="#D40F7D"/>
<path d="M15.8638 53.5C18.7368 54.625 21.9845 55.375 25.3571 55.375C38.0982 55.375 48.5908 45.875 50.3396 33.625L15.8638 53.5Z" fill="#D40F7D"/>
<path d="M9.74316 10.125C3.74737 14.75 0 21.875 0 30C0 38.125 3.74737 45.25 9.74316 49.875V10.125Z" fill="#D40F7D"/>
<path d="M76.0716 22.75V40.125H72.574V22.75H65.7039V19.875H82.9417V22.75H76.0716Z" fill="#000D22"/>
<path d="M86.5643 30.75C86.5643 34.875 90.0618 37.625 93.6843 37.625C96.0576 37.625 99.3053 36.5 100.305 35.75V39.25C98.8057 39.75 96.5572 40.5 93.5593 40.5C86.4393 40.5 82.8169 36.125 82.8169 29.625C82.8169 23.625 86.939 19.375 92.4351 19.375C98.5558 19.375 101.554 23.75 101.554 29.375V30.625H86.5643V30.75ZM92.4351 22.25C88.8127 22.25 86.6892 25.375 86.5643 28.125H97.9313C97.9313 25 95.8078 22.25 92.4351 22.25Z" fill="#000D22"/>
<path d="M117.792 40.125V22.75H110.298V28.5C110.298 33.625 109.923 40.375 104.052 40.375C103.303 40.375 102.303 40.25 101.928 40.125V37.125C102.178 37.25 103.178 37.375 103.802 37.375C106.3 37.375 106.8 34.625 106.8 25.75V19.875H121.165V40.125H117.792Z" fill="#000D22"/>
<path d="M127.785 30.75C127.785 34.875 131.283 37.625 134.905 37.625C137.279 37.625 140.526 36.5 141.526 35.75V39.25C140.027 39.75 137.778 40.5 134.78 40.5C127.66 40.5 124.038 36.125 124.038 29.625C124.038 23.625 128.16 19.375 133.656 19.375C139.777 19.375 142.775 23.75 142.775 29.375V30.625H127.785V30.75ZM133.656 22.25C130.034 22.25 127.91 25.375 127.785 28.125H139.152C139.152 25 137.029 22.25 133.656 22.25Z" fill="#000D22"/>
<path d="M145.648 40.125V19.875H149.145V29.125H149.27L158.264 19.875H162.636L153.142 29.25L163.76 40H159.263L149.27 29.5H149.145V40H145.648V40.125Z" fill="#000D22"/>
<path d="M177.126 40.125V37.375H177.001C175.627 38.75 173.628 40.625 170.755 40.625C166.133 40.625 163.51 38.125 163.51 34.25C163.51 28.625 169.631 27.5 172.379 27.5C174.378 27.5 176.126 28 176.751 28.25V26.75C176.751 23.75 175.252 22.25 171.879 22.25C169.006 22.25 167.133 23.5 165.884 24.625V21.625C166.758 21 169.256 19.375 172.379 19.375C178 19.375 180.248 22.125 180.248 27.625V40.125H177.126ZM176.751 30.75C176.251 30.5 174.877 30 173.503 30C171.754 30 167.258 30.375 167.258 34.125C167.258 36.375 169.256 37.625 171.13 37.625C173.004 37.625 175.502 36.375 176.876 34.875V30.75H176.751Z" fill="#000D22"/>
<path d="M193.989 40.625C191.366 40.625 188.743 39.125 187.369 37.5H187.244V46.875H183.746V19.875H186.994V22.75H187.119C188.368 21.375 190.491 19.375 193.864 19.375C199.61 19.375 203.732 23.625 203.732 29.625C203.732 35.75 199.86 40.625 193.989 40.625ZM193.489 22.25C189.617 22.25 188.368 24.25 187.244 25.875V33.875C188.368 35.75 190.366 37.75 193.489 37.75C197.611 37.75 200.11 34.375 200.11 30C199.985 25.75 197.611 22.25 193.489 22.25Z" fill="#000D22"/>
<path d="M213.975 22.75V40.125H210.477V22.75H203.607V19.875H220.845V22.75H213.975Z" fill="#000D22"/>
<path d="M234.211 40.125V37.375H234.086C232.712 38.75 230.713 40.625 227.84 40.625C223.218 40.625 220.595 38.125 220.595 34.25C220.595 28.625 226.716 27.5 229.464 27.5C231.463 27.5 233.211 28 233.836 28.25V26.75C233.836 23.75 232.337 22.25 228.964 22.25C226.091 22.25 224.218 23.5 222.969 24.625V21.625C223.843 21 226.341 19.375 229.464 19.375C235.085 19.375 237.333 22.125 237.333 27.625V40.125H234.211ZM233.836 30.75C233.336 30.5 231.962 30 230.588 30C228.839 30 224.343 30.375 224.343 34.125C224.343 36.375 226.341 37.625 228.215 37.625C230.089 37.625 232.587 36.375 233.961 34.875V30.75H233.836Z" fill="#000D22"/>
</g>
<defs>
<clipPath id="clip0_234_528">
<rect width="237.333" height="60" fill="white"/>
</clipPath>
</defs>
</svg>
