<svg width="241" height="60" viewBox="0 0 241 60" fill="none" xmlns="http://www.w3.org/2000/svg">
<g clip-path="url(#clip0_234_516)">
<path d="M60.1245 35.8662H36.0842L60.1245 59.7611H84.1647L60.1245 35.8662Z" fill="#E31231"/>
<path d="M24.0641 0.0239258H0.0239258L24.0641 23.9188L12.044 35.8662H36.0843L48.1044 23.9188L24.0641 0.0239258Z" fill="#00519E"/>
<path d="M77.9623 9.271V14.3606H71.7359V30.7764H66.3509V14.3606H60.1245V9.271H77.9623Z" fill="#00519E"/>
<path d="M109.792 22.7477L117.917 9.271H123.495V30.7764H118.302V17.2519L110.176 30.7764H104.599V9.271H109.792V22.7477Z" fill="#00519E"/>
<path d="M134.529 16.8457H135.154L141.429 9.271H148.352L139.626 19.259L149.073 30.7764H141.957L135.058 21.7441H134.529V30.7764H129.144V9.271H134.529V16.8457Z" fill="#00519E"/>
<path d="M159.964 9.271C153.473 9.271 149.218 13.6677 149.218 20.0237C149.218 26.3797 153.569 30.7764 159.964 30.7764C166.358 30.7764 170.638 26.3319 170.638 19.9759C170.638 13.6199 166.455 9.271 159.964 9.271ZM159.964 25.7584C156.478 25.7584 154.531 23.369 154.531 20.0237C154.531 16.6784 156.526 14.2889 159.964 14.2889C163.402 14.2889 165.325 16.6545 165.325 19.9759C165.325 23.2973 163.45 25.7346 159.964 25.7584Z" fill="#00519E"/>
<path d="M91.9298 9.271H82.7224V30.7764H88.1074V24.9699H91.8577C96.5936 24.9699 100.272 22.0309 100.272 17.1563C100.272 12.3295 96.6417 9.271 91.9298 9.271ZM92.05 19.8564H88.1074V14.3606H91.9539C93.805 14.3606 94.8868 15.2447 94.8868 17.1324C94.9108 18.9484 93.853 19.8564 92.05 19.8564Z" fill="#00519E"/>
<path d="M232.084 9.271H222.877V30.7764H228.262V24.9699H232.012C236.748 24.9699 240.426 22.0309 240.426 17.1563C240.426 12.3295 236.796 9.271 232.084 9.271ZM232.205 19.8564H228.262V14.3606H232.108C233.96 14.3606 235.041 15.2447 235.041 17.1324C235.041 18.9484 233.984 19.8564 232.205 19.8564Z" fill="#00519E"/>
<path d="M208.068 9.271C201.577 9.271 197.322 13.6677 197.322 20.0237C197.322 26.3797 201.674 30.7764 208.068 30.7764C214.463 30.7764 218.742 26.3319 218.742 19.9759C218.742 13.6199 214.559 9.271 208.068 9.271ZM208.068 25.7584C204.582 25.7584 202.635 23.369 202.635 20.0237C202.635 16.6784 204.63 14.2889 208.068 14.2889C211.506 14.2889 213.429 16.6545 213.429 19.9759C213.429 23.2973 211.578 25.7346 208.068 25.7584Z" fill="#00519E"/>
<path d="M182.417 14.3606C182.297 15.8421 182.177 17.3474 182.008 18.8289C181.84 20.406 181.624 21.9352 181.335 23.4406C180.494 27.7656 178.186 30.5374 173.859 30.7524C173.426 30.7763 172.993 30.7763 172.537 30.7524V25.5912C174.941 25.6628 175.614 24.7548 176.071 22.5087C176.359 21.0511 176.623 19.0918 176.816 17.0607C177.08 14.4561 177.297 11.8516 177.441 9.24707H193.548V30.7047H188.163V14.3606H182.417Z" fill="#00519E"/>
</g>
<defs>
<clipPath id="clip0_234_516">
<rect width="240.667" height="60" fill="white"/>
</clipPath>
</defs>
</svg>
