<svg  viewBox="0 0 20 21" fill="" xmlns="http://www.w3.org/2000/svg">
<path d="M9.75631 0.25C8.21256 0.25 4.39381 0.4125 2.36256 2.3625C0.900057 3.74375 0.331307 5.85625 0.250057 8.375C0.0875571 12.3563 0.981307 14.875 2.44381 16.175C2.76881 16.4188 3.58131 17.0688 5.12506 17.5563V19.5875C5.12506 19.5875 5.12506 20.4 5.61256 20.5625C5.69381 20.5625 5.77506 20.6438 5.85631 20.6438C6.34381 20.6438 6.75006 20.075 7.31881 19.5063C7.80631 18.9375 8.21256 18.5313 8.45631 18.125H10.2438C11.7876 18.125 15.6063 17.9625 17.6376 16.0125C19.1001 14.55 19.6688 12.4375 19.6688 9.75625C19.7501 9.35 19.7501 8.8625 19.7501 8.375C19.6688 5.36875 18.7751 3.3375 17.5563 2.2C17.0688 1.79375 14.9563 0.25 10.4063 0.25H9.75631ZM9.59381 1.79375H10.3251C14.6313 1.79375 16.2563 3.175 16.4188 3.3375C17.3938 4.15 17.9626 5.9375 18.0438 8.29375V8.61875C18.1251 9.10625 18.1251 9.5125 18.1251 9.75625C18.0438 12.1938 17.5563 13.8188 16.5813 14.875C14.8751 16.4188 11.3001 16.5 10.3251 16.5H8.78131L7.48131 17.9625L6.66881 18.8563L6.50631 19.1C6.34381 19.2625 6.10006 19.5875 5.93756 19.6688V16.0125C4.31256 15.6063 3.66256 15.0375 3.50006 14.875C2.36256 13.9 1.71256 11.5438 1.87506 8.375V7.5625C2.03756 5.6125 2.52506 4.3125 3.33756 3.41875C5.04381 1.875 8.61881 1.79375 9.59381 1.79375ZM9.51256 3.58125C9.10631 3.58125 9.10631 4.15 9.51256 4.15C12.5188 4.15 15.1188 6.18125 15.1188 10C15.1188 10.4063 15.6876 10.4063 15.6876 10C15.6876 5.85625 12.9251 3.5 9.51256 3.58125ZM6.29262 4.33281C6.10852 4.31075 5.92309 4.36148 5.77587 4.47419C4.96337 4.88044 4.15006 5.69456 4.39381 6.58831C4.39381 6.58831 4.55631 7.31875 5.45006 8.8625C5.93756 9.59375 6.34381 10.2438 6.75006 10.7313C7.15631 11.3 7.80631 11.95 8.45631 12.4375C9.75631 13.4938 11.7876 14.55 12.6813 14.7938C13.4938 15.0375 14.3876 14.225 14.7938 13.4125C14.9563 13.0875 14.8751 12.6813 14.5501 12.4375C14.0626 11.95 13.2501 11.3813 12.6813 11.0563C12.2751 10.8125 11.7876 10.975 11.6251 11.2188L11.2188 11.7063C11.0563 11.95 10.6501 11.95 10.6501 11.95C7.96881 11.2188 7.23756 8.45625 7.23756 8.45625C7.23756 8.45625 7.23756 8.13125 7.48131 7.8875L7.96881 7.48125C8.21256 7.31875 8.37506 6.83125 8.13131 6.425C7.96881 6.18125 7.72506 5.69375 7.48131 5.45C7.23756 5.125 6.75006 4.55625 6.75006 4.55625C6.62678 4.43281 6.46576 4.35416 6.29262 4.33281ZM10.0813 5.20625C9.67506 5.125 9.59381 5.775 10.0001 5.775C12.2751 5.9375 13.5751 7.48125 13.4938 9.43125C13.4126 9.8375 14.0626 9.8375 14.0626 9.43125C14.1438 7.15625 12.6813 5.2875 10.0813 5.20625ZM10.3251 6.75C9.91881 6.66875 9.91881 7.31875 10.3251 7.31875C11.3001 7.31875 11.7876 7.8875 11.7876 8.8625C11.8688 9.26875 12.4376 9.26875 12.4376 8.8625C12.3563 7.5625 11.6251 6.75 10.3251 6.75Z" fill=""/>
</svg>
